<?xml version="1.0" encoding="UTF-8" standalone="no"?>
<!-- Created with Inkscape (http://www.inkscape.org/) -->

<svg
   xmlns:dc="http://purl.org/dc/elements/1.1/"
   xmlns:cc="http://creativecommons.org/ns#"
   xmlns:rdf="http://www.w3.org/1999/02/22-rdf-syntax-ns#"
   xmlns:svg="http://www.w3.org/2000/svg"
   xmlns="http://www.w3.org/2000/svg"
   xmlns:sodipodi="http://sodipodi.sourceforge.net/DTD/sodipodi-0.dtd"
   xmlns:inkscape="http://www.inkscape.org/namespaces/inkscape"
   width="107.35644mm"
   height="39.662563mm"
   viewBox="0 0 107.35644 39.662563"
   version="1.1"
   id="svg8"
   inkscape:version="0.92.2 (5c3e80d, 2017-08-06)"
   sodipodi:docname="SS-Main-Logo.svg">
  <defs
     id="defs2" />
  <sodipodi:namedview
     id="base"
     pagecolor="#ffffff"
     bordercolor="#666666"
     borderopacity="1.0"
     inkscape:pageopacity="0.0"
     inkscape:pageshadow="2"
     inkscape:zoom="2.1256585"
     inkscape:cx="299.65877"
     inkscape:cy="70.706814"
     inkscape:document-units="mm"
     inkscape:current-layer="layer1-9"
     showgrid="false"
     fit-margin-top="2"
     fit-margin-left="2"
     fit-margin-right="2"
     fit-margin-bottom="2"
     inkscape:window-width="1920"
     inkscape:window-height="1053"
     inkscape:window-x="1671"
     inkscape:window-y="-9"
     inkscape:window-maximized="1" />
  <metadata
     id="metadata5">
    <rdf:RDF>
      <cc:Work
         rdf:about="">
        <dc:format>image/svg+xml</dc:format>
        <dc:type
           rdf:resource="http://purl.org/dc/dcmitype/StillImage" />
        <dc:title></dc:title>
      </cc:Work>
    </rdf:RDF>
  </metadata>
  <g
     inkscape:label="Layer 1"
     inkscape:groupmode="layer"
     id="layer1"
     transform="translate(-39.681903,-69.281814)">
    <g
       id="layer1-9"
       inkscape:label="Layer 1"
       transform="translate(-1.4739633,34.967255)">
      <g
         id="text3701"
         style="font-style:normal;font-variant:normal;font-weight:normal;font-stretch:normal;font-size:10.58333302px;line-height:1.25;font-family:'Green Mountain 3';-inkscape-font-specification:'Green Mountain 3, ';letter-spacing:0px;word-spacing:0px;fill:#000000;fill-opacity:1;stroke:none;stroke-width:0.26458332"
         aria-label="SECURITY"
         transform="translate(-1.0558603e-6)" />
      <g
         id="g4824">
        <path
           d="m 45.047225,46.202471 q 0,0.490927 0.253214,0.630453 0.09302,0.04651 0.26355,0.07751 0.1757,0.02584 0.449585,0.02584 l 0.537435,0.0155 h 1.384928 0.501261 q 0.573609,0 0.573609,-0.485759 0,-0.408244 -0.392741,-0.470255 L 48.23566,45.96992 47.853255,45.95442 46.716373,45.90791 46.163436,45.8769 45.212589,45.82522 q -0.222208,0 -0.403076,-0.01034 -0.1757,-0.0155 -0.475423,-0.07235 -0.800985,-0.129191 -0.98702,-0.800984 -0.10852,-0.372071 -0.10852,-0.806153 0,-0.785481 0.144694,-1.142049 0.237711,-0.589111 0.795817,-0.775146 0.558105,-0.191203 2.309936,-0.191203 0.320394,0 0.914673,0.02067 0.594279,0.02067 0.868164,0.02067 0.583944,0 1.018026,0.08268 0.439249,0.08268 0.728637,0.227377 0.330729,0.165364 0.511597,0.501261 0.180867,0.335897 0.180867,0.842326 v 0.418579 h -1.891357 l -0.03101,-0.227376 q -0.06201,-0.304891 -0.325561,-0.397909 -0.0155,-0.0052 -0.124024,-0.02067 -0.206705,-0.03101 -0.413411,-0.03101 L 47.414005,43.44295 H 46.30813 l -0.490927,0.0155 q -0.201538,0 -0.37207,0.05684 -0.315226,0.07235 -0.315226,0.428914 0,0.361735 0.382405,0.459921 0.07751,0.0155 0.201539,0.03101 0.124023,0.0155 0.217041,0.0155 l 0.490926,0.01034 1.741495,0.05684 1.012858,0.04134 q 0.201539,0 0.397909,0.04134 0.201538,0.03617 0.403076,0.103353 0.925008,0.310059 0.925008,1.782837 0,1.627807 -1.498616,1.824178 -0.09302,0.01033 -0.26355,0.02584 -0.170532,0.0155 -0.279053,0.0155 -0.28422,0 -0.733805,0.01034 -0.444417,0.0155 -0.521932,0.0155 -0.09302,0 -0.862996,-0.02584 -0.764812,-0.02067 -1.183391,-0.02067 -0.1757,0 -0.351399,-0.01033 -0.1757,-0.0052 -0.3514,-0.02584 -0.392741,0 -0.707967,-0.113688 -0.310059,-0.113688 -0.542603,-0.310059 -0.191203,-0.165364 -0.310058,-0.480591 -0.118856,-0.320393 -0.118856,-0.754476 l -0.02067,-0.434082 z"
           style="font-style:normal;font-variant:normal;font-weight:normal;font-stretch:normal;font-size:10.58333302px;line-height:1.25;font-family:'Green Mountain 3';-inkscape-font-specification:'Green Mountain 3, ';letter-spacing:0px;word-spacing:0px;fill:#000000;fill-opacity:1;stroke:none;stroke-width:0.26458332"
           id="path4631"
           inkscape:connector-curvature="0" />
        <path
           d="m 52.028711,42.099363 h 6.826456 v 1.44694 h -4.935099 v 0.847493 h 4.661214 v 1.343588 h -4.661214 v 1.121378 h 4.991943 v 1.44694 h -6.8833 z"
           style="font-style:normal;font-variant:normal;font-weight:normal;font-stretch:normal;font-size:10.58333302px;line-height:1.25;font-family:'Green Mountain 3';-inkscape-font-specification:'Green Mountain 3, ';letter-spacing:0px;word-spacing:0px;fill:#000000;fill-opacity:1;stroke:none;stroke-width:0.26458332"
           id="path4633"
           inkscape:connector-curvature="0" />
        <path
           d="M 65.743634,43.758176 Q 65.51109,43.628985 65.082176,43.628985 h -1.152384 q -0.43925,0 -0.671794,0.0052 -0.227376,0.0052 -0.413411,0.01034 -0.284221,0 -0.475424,0.118856 -0.186035,0.113688 -0.263549,0.330729 -0.04134,0.113688 -0.06201,0.330729 -0.02067,0.211874 -0.02067,0.573609 0,0.940511 0.06201,1.198893 0.149862,0.573608 0.940511,0.573608 l 1.25057,0.0052 1.043864,0.0052 q 0.676961,0 0.749308,-0.640788 l 0.01033,-0.227377 h 1.891358 v 0.304891 q 0,0.759644 -0.165365,1.193726 -0.06201,0.19637 -0.217041,0.346232 -0.428914,0.444417 -1.565796,0.552938 -0.232544,0.02067 -0.506429,0.04134 -0.273885,0.02067 -0.645955,0.02067 l -0.728638,0.0052 q -0.418579,0 -0.713135,-0.0052 -0.294555,-0.0052 -0.563273,-0.01034 -0.1757,0 -0.387573,-0.02067 -0.206706,-0.0155 -0.444417,-0.04651 -0.403077,-0.04651 -0.744141,-0.170532 -0.408244,-0.124024 -0.640788,-0.418579 -0.351399,-0.403077 -0.434082,-0.976685 -0.08268,-0.573608 -0.08268,-1.390096 0,-0.847493 0.05684,-1.44694 0,-0.170532 0.03617,-0.330729 0.04134,-0.165365 0.113688,-0.341065 0.325561,-0.873331 1.410766,-1.059366 0.837158,-0.134359 2.299601,-0.134359 h 0.862997 q 1.586466,0 2.232422,0.315226 0.465088,0.227376 0.661458,0.883667 0.08268,0.289388 0.08268,1.126546 h -1.891357 q 0,-0.454752 -0.253215,-0.594279 z"
           style="font-style:normal;font-variant:normal;font-weight:normal;font-stretch:normal;font-size:10.58333302px;line-height:1.25;font-family:'Green Mountain 3';-inkscape-font-specification:'Green Mountain 3, ';letter-spacing:0px;word-spacing:0px;fill:#000000;fill-opacity:1;stroke:none;stroke-width:0.26458332"
           id="path4635"
           inkscape:connector-curvature="0" />
        <path
           d="m 69.345483,42.099363 h 1.891357 v 3.519165 l 0.0052,0.346232 q 0,0.361735 0.227376,0.568441 0.227377,0.201538 0.666626,0.201538 0.180868,0 0.547771,0.02067 0.366902,0.02067 0.54777,0.02067 0.868164,0 1.250569,-0.04651 0.382406,-0.04651 0.589112,-0.232544 0.206705,-0.191203 0.206705,-0.532267 l 0.0155,-0.475423 v -3.389974 h 1.891358 v 4.066935 l -0.02584,0.289388 q 0,0.397909 -0.118855,0.707967 -0.113688,0.310059 -0.315227,0.542603 -0.356567,0.403076 -1.157552,0.573608 l -0.279052,0.05168 q -0.434082,0.04651 -2.263428,0.04651 l -1.333252,-0.02067 q -1.62264,0 -2.015381,-0.935344 -0.149861,-0.330729 -0.232544,-0.671793 -0.08268,-0.346232 -0.08268,-0.728638 l -0.0155,-0.501261 z"
           style="font-style:normal;font-variant:normal;font-weight:normal;font-stretch:normal;font-size:10.58333302px;line-height:1.25;font-family:'Green Mountain 3';-inkscape-font-specification:'Green Mountain 3, ';letter-spacing:0px;word-spacing:0px;fill:#000000;fill-opacity:1;stroke:none;stroke-width:0.26458332"
           id="path4637"
           inkscape:connector-curvature="0" />
        <path
           d="m 84.140444,42.099363 q 0.310059,0 0.423747,0.01034 0.118856,0.0052 0.346232,0.03101 0.868164,0.08785 1.18339,0.630452 0.118856,0.206706 0.1757,0.434082 0.04651,0.222209 0.07235,0.454753 0.02584,0.227376 0.02584,0.470256 0,0.769978 -0.206705,1.152384 -0.206706,0.382406 -0.981852,0.61495 0.780314,0.217041 0.966349,0.532267 0.191203,0.310058 0.191203,1.116211 v 0.759643 H 84.44534 l -0.0155,-0.573608 q 0,-0.583944 -0.139526,-0.764811 -0.155029,-0.201538 -0.733805,-0.201538 H 80.5541 v 1.539957 H 78.662743 V 42.099363 Z M 80.5541,43.701332 v 1.462443 h 2.645833 q 0.08785,0 0.284221,-0.0052 0.201538,-0.0052 0.315226,-0.0052 0.118856,0 0.211873,-0.0155 0.09819,-0.0155 0.180868,-0.05684 0.28422,-0.124024 0.28422,-0.671794 0,-0.37207 -0.19637,-0.552937 -0.149862,-0.139527 -0.573609,-0.139527 l -0.552938,-0.0155 z"
           style="font-style:normal;font-variant:normal;font-weight:normal;font-stretch:normal;font-size:10.58333302px;line-height:1.25;font-family:'Green Mountain 3';-inkscape-font-specification:'Green Mountain 3, ';letter-spacing:0px;word-spacing:0px;fill:#000000;fill-opacity:1;stroke:none;stroke-width:0.26458332"
           id="path4639"
           inkscape:connector-curvature="0" />
        <path
           d="m 87.793969,42.099363 h 1.891358 v 6.206339 h -1.891358 z"
           style="font-style:normal;font-variant:normal;font-weight:normal;font-stretch:normal;font-size:10.58333302px;line-height:1.25;font-family:'Green Mountain 3';-inkscape-font-specification:'Green Mountain 3, ';letter-spacing:0px;word-spacing:0px;fill:#000000;fill-opacity:1;stroke:none;stroke-width:0.26458332"
           id="path4641"
           inkscape:connector-curvature="0" />
        <path
           d="m 98.093082,42.099363 v 1.601969 h -2.71818 v 4.60437 h -1.891357 v -4.60437 h -2.718181 v -1.601969 z"
           style="font-style:normal;font-variant:normal;font-weight:normal;font-stretch:normal;font-size:10.58333302px;line-height:1.25;font-family:'Green Mountain 3';-inkscape-font-specification:'Green Mountain 3, ';letter-spacing:0px;word-spacing:0px;fill:#000000;fill-opacity:1;stroke:none;stroke-width:0.26458332"
           id="path4643"
           inkscape:connector-curvature="0" />
        <path
           d="m 100.80609,42.099363 2.04122,2.495971 2.04122,-2.495971 h 2.42363 l -3.52951,4.041097 v 2.165242 H 101.8913 V 46.14046 l -3.519167,-4.041097 z"
           style="font-style:normal;font-variant:normal;font-weight:normal;font-stretch:normal;font-size:10.58333302px;line-height:1.25;font-family:'Green Mountain 3';-inkscape-font-specification:'Green Mountain 3, ';letter-spacing:0px;word-spacing:0px;fill:#000000;fill-opacity:1;stroke:none;stroke-width:0.26458332"
           id="path4645"
           inkscape:connector-curvature="0" />
        <g
           transform="translate(-1.0558603e-6)"
           aria-label="STREAM"
           style="font-style:normal;font-variant:normal;font-weight:normal;font-stretch:normal;font-size:4.93888855px;line-height:1.25;font-family:'Green Mountain 3';-inkscape-font-specification:'Green Mountain 3, ';letter-spacing:0px;word-spacing:0px;fill:#000000;fill-opacity:1;stroke:none;stroke-width:0.26458332"
           id="text3707">
          <path
             d="m 82.064036,53.605025 q 0,0.229099 0.118166,0.294211 0.04341,0.0217 0.12299,0.03617 0.08199,0.01206 0.209807,0.01206 l 0.250803,0.0072 h 0.646299 0.233922 q 0.267684,0 0.267684,-0.226687 0,-0.190514 -0.183279,-0.219453 l -0.178456,-0.01206 -0.178456,-0.0072 -0.530544,-0.0217 -0.258038,-0.01447 -0.443728,-0.02412 q -0.103698,0 -0.188102,-0.0048 -0.08199,-0.0072 -0.221865,-0.03376 -0.373792,-0.06029 -0.460609,-0.373793 -0.05064,-0.173633 -0.05064,-0.376205 0,-0.366558 0.06752,-0.532956 0.110932,-0.274919 0.371381,-0.361735 0.26045,-0.08923 1.077971,-0.08923 0.149517,0 0.426847,0.0096 0.27733,0.0096 0.405143,0.0096 0.272507,0 0.475079,0.03858 0.204983,0.03858 0.340031,0.106109 0.15434,0.07717 0.238745,0.233922 0.08441,0.156751 0.08441,0.393085 v 0.195337 h -0.882634 l -0.01447,-0.106109 q -0.02894,-0.142283 -0.151929,-0.185691 -0.0072,-0.0024 -0.05788,-0.0096 -0.09646,-0.01447 -0.192926,-0.01447 l -0.238745,-0.0096 h -0.516075 l -0.229099,0.0072 q -0.09405,0 -0.173633,0.02653 -0.147105,0.03376 -0.147105,0.20016 0,0.16881 0.178456,0.21463 0.03617,0.0072 0.09405,0.01447 0.05788,0.0072 0.101286,0.0072 l 0.229098,0.0048 0.812698,0.02653 0.472667,0.01929 q 0.09405,0 0.185691,0.01929 0.09405,0.01688 0.188102,0.04823 0.431671,0.144694 0.431671,0.83199 0,0.759644 -0.699355,0.851283 -0.04341,0.0048 -0.12299,0.01206 -0.07958,0.0072 -0.130224,0.0072 -0.132636,0 -0.342443,0.0048 -0.207394,0.0072 -0.243568,0.0072 -0.04341,0 -0.402731,-0.01206 -0.356912,-0.0096 -0.552249,-0.0096 -0.08199,0 -0.163987,-0.0048 -0.08199,-0.0024 -0.163986,-0.01206 -0.183279,0 -0.330385,-0.05305 -0.144694,-0.05305 -0.253214,-0.144694 -0.08923,-0.07717 -0.144694,-0.224276 -0.05547,-0.149517 -0.05547,-0.352088 l -0.0096,-0.202572 z"
             style="stroke-width:0.26458332"
             id="path4648"
             inkscape:connector-curvature="0" />
          <path
             d="m 88.529446,51.690241 v 0.747586 h -1.268484 v 2.148706 h -0.882633 v -2.148706 h -1.268485 v -0.747586 z"
             style="stroke-width:0.26458332"
             id="path4650"
             inkscape:connector-curvature="0" />
          <path
             d="m 91.529435,51.690241 q 0.144694,0 0.197749,0.0048 0.05547,0.0024 0.161575,0.01447 0.405143,0.041 0.552248,0.294211 0.05547,0.09646 0.08199,0.202571 0.0217,0.103698 0.03376,0.212218 0.01206,0.106109 0.01206,0.219453 0,0.359323 -0.09646,0.537779 -0.09646,0.178456 -0.458198,0.286977 0.364147,0.101285 0.450963,0.248391 0.08923,0.144694 0.08923,0.520898 v 0.354501 h -0.882633 l -0.0072,-0.267684 q 0,-0.272507 -0.06511,-0.356912 -0.07235,-0.09405 -0.342443,-0.09405 h -1.40112 v 0.718647 h -0.882633 v -2.896292 z m -1.673627,0.747586 V 53.1203 h 1.234722 q 0.041,0 0.132636,-0.0024 0.09405,-0.0024 0.147106,-0.0024 0.05547,0 0.09887,-0.0072 0.04582,-0.0072 0.08441,-0.02653 0.132636,-0.05788 0.132636,-0.313504 0,-0.173632 -0.09164,-0.258037 -0.06994,-0.06511 -0.267683,-0.06511 l -0.258038,-0.0072 z"
             style="stroke-width:0.26458332"
             id="path4652"
             inkscape:connector-curvature="0" />
          <path
             d="m 93.18377,51.690241 h 3.18568 v 0.675239 h -2.303047 v 0.395497 h 2.175234 v 0.627007 h -2.175234 v 0.52331 h 2.329574 v 0.675239 H 93.18377 Z"
             style="stroke-width:0.26458332"
             id="path4654"
             inkscape:connector-curvature="0" />
          <path
             d="m 98.409635,51.690241 h 1.121379 l 1.598866,2.896292 h -1.0008 L 99.858987,54.08975 h -1.786971 l -0.260449,0.496783 h -1.0008 z m 0.01447,1.72427 h 1.075558 l -0.525721,-0.988742 z"
             style="stroke-width:0.26458332"
             id="path4656"
             inkscape:connector-curvature="0" />
          <path
             d="m 101.5929,51.690241 h 1.40354 l 1.01044,1.861729 1.03215,-1.861729 h 1.40353 v 2.896292 h -0.88263 V 52.474 l -1.20337,2.112533 h -0.69694 l -1.18408,-2.122179 v 2.122179 h -0.88264 z"
             style="stroke-width:0.26458332"
             id="path4658"
             inkscape:connector-curvature="0" />
        </g>
        <g
           transform="translate(-1.0558603e-6)"
           aria-label="OUR BUSINESS IS CODE ITSELF"
           style="font-style:normal;font-variant:normal;font-weight:normal;font-stretch:normal;font-size:4.93888855px;line-height:1.25;font-family:'Autobus Bold';-inkscape-font-specification:'Autobus Bold, ';letter-spacing:0px;word-spacing:0px;fill:#000000;fill-opacity:1;stroke:none;stroke-width:0.26458332"
           id="text3713">
          <path
             d="m 45.556108,64.0802 q 0,0.163159 -0.06526,0.313266 -0.05874,0.143581 -0.169686,0.254529 -0.104422,0.104423 -0.254529,0.169687 -0.143581,0.05874 -0.30674,0.05874 h -0.672218 q -0.169687,0 -0.313267,-0.05874 -0.143581,-0.06526 -0.254529,-0.169687 -0.110949,-0.110948 -0.176213,-0.254529 -0.05874,-0.150107 -0.05874,-0.313266 v -3.334985 q 0,-0.16316 0.05874,-0.306741 0.06526,-0.150106 0.176213,-0.254529 0.110948,-0.110948 0.254529,-0.169686 0.14358,-0.06526 0.313267,-0.06526 h 0.672218 q 0.163159,0 0.30674,0.06526 0.150107,0.05874 0.254529,0.169686 0.110949,0.104423 0.169686,0.254529 0.06526,0.143581 0.06526,0.306741 z m -1.696861,0.01958 q 0,0.104422 0.07179,0.176212 0.07179,0.07179 0.176213,0.07179 h 0.626533 q 0.104422,0 0.176213,-0.07179 0.07179,-0.07179 0.07179,-0.176212 v -3.374143 q 0,-0.104423 -0.07179,-0.176213 -0.07179,-0.07179 -0.176213,-0.07179 H 44.10725 q -0.104423,0 -0.176213,0.07179 -0.07179,0.07179 -0.07179,0.176213 z"
             style="font-size:6.52638912px;stroke-width:0.26458332"
             id="path4661"
             inkscape:connector-curvature="0" />
          <path
             d="m 46.898505,64.876419 q -0.16316,0 -0.313267,-0.05874 -0.14358,-0.06526 -0.254529,-0.169687 -0.104422,-0.110948 -0.169686,-0.254529 -0.05874,-0.150107 -0.05874,-0.313266 v -4.137731 h 0.574323 v 4.15731 q 0,0.104422 0.07179,0.176212 0.07179,0.07179 0.176212,0.07179 h 0.874537 v -4.405313 h 0.574322 v 4.93395 z"
             style="font-size:6.52638912px;stroke-width:0.26458332"
             id="path4663"
             inkscape:connector-curvature="0" />
          <path
             d="m 50.303241,63.362297 q 0.261055,0.37853 0.515584,0.757061 0.25453,0.37853 0.515585,0.757061 h -0.652639 q -0.254529,-0.378531 -0.509058,-0.757061 -0.254529,-0.378531 -0.515585,-0.757061 l -0.182739,0.0065 v 1.507596 h -0.574322 v -4.93395 h 1.474964 q 0.16316,0 0.30674,0.06526 0.150107,0.06526 0.254529,0.176212 0.110949,0.104423 0.169686,0.254529 0.06526,0.143581 0.06526,0.306741 v 1.814336 q 0,0.182739 -0.07179,0.326319 -0.07179,0.143581 -0.195792,0.248003 -0.117475,0.104422 -0.274108,0.16316 -0.156633,0.05874 -0.326319,0.06526 z m 0.05221,-0.528638 q 0.104422,0 0.169686,-0.07179 0.07179,-0.07179 0.07179,-0.176213 v -1.86002 q 0,-0.104423 -0.07179,-0.176213 -0.06526,-0.07179 -0.169686,-0.07179 h -0.881063 v 2.356026 z"
             style="font-size:6.52638912px;stroke-width:0.26458332"
             id="path4665"
             inkscape:connector-curvature="0" />
          <path
             d="m 55.155203,62.239758 q 0.248003,0.23495 0.248003,0.561269 V 64.0802 q 0,0.163159 -0.06526,0.313266 -0.05874,0.143581 -0.169686,0.254529 -0.104422,0.104423 -0.254529,0.169687 -0.143581,0.05874 -0.306741,0.05874 h -1.474964 v -4.93395 h 1.396648 q 0.163159,0 0.30674,0.06526 0.150107,0.06526 0.254529,0.176212 0.110949,0.104423 0.169686,0.254529 0.06526,0.143581 0.06526,0.306741 v 1.018116 q 0,0.25453 -0.169686,0.476428 z m -1.448858,-0.215371 q 0.202318,0 0.398109,0 0.202319,-0.0065 0.404637,-0.0065 0.0979,0 0.169686,-0.07179 0.07179,-0.07179 0.07179,-0.169686 v -1.050748 q 0,-0.104423 -0.07179,-0.176213 -0.07179,-0.07179 -0.169686,-0.07179 h -0.802746 z m 0.874536,2.323395 q 0.104422,0 0.176212,-0.07179 0.07179,-0.07179 0.07179,-0.176212 v -1.305278 q 0,-0.0979 -0.07179,-0.169686 -0.07179,-0.07832 -0.176212,-0.07832 -0.215371,0 -0.437268,0.0065 -0.215371,0 -0.437268,0 v 1.794757 z"
             style="font-size:6.52638912px;stroke-width:0.26458332"
             id="path4667"
             inkscape:connector-curvature="0" />
          <path
             d="m 56.751823,64.876419 q -0.16316,0 -0.313267,-0.05874 -0.14358,-0.06526 -0.254529,-0.169687 -0.104422,-0.110948 -0.169686,-0.254529 -0.05874,-0.150107 -0.05874,-0.313266 v -4.137731 h 0.574322 v 4.15731 q 0,0.104422 0.07179,0.176212 0.07179,0.07179 0.176213,0.07179 h 0.874536 v -4.405313 h 0.574322 v 4.93395 z"
             style="font-size:6.52638912px;stroke-width:0.26458332"
             id="path4669"
             inkscape:connector-curvature="0" />
          <path
             d="m 60.378456,60.77132 q 0,-0.124001 -0.08484,-0.208844 -0.08484,-0.09137 -0.215371,-0.09137 h -0.482953 q -0.130527,0 -0.21537,0.09137 -0.08484,0.08484 -0.08484,0.208844 v 0.626534 q 0,0.156633 0.09137,0.267582 0.09137,0.110948 0.215371,0.195791 l 0.815798,0.554743 q 0.23495,0.169686 0.385057,0.391584 0.156634,0.215371 0.156634,0.522111 v 0.698323 q 0,0.176213 -0.07179,0.332846 -0.06526,0.150107 -0.182738,0.267582 -0.110949,0.117475 -0.267582,0.182739 -0.150107,0.06526 -0.32632,0.06526 h -0.522111 q -0.176213,0 -0.332846,-0.06526 -0.156633,-0.06526 -0.274108,-0.182739 -0.110949,-0.117475 -0.182739,-0.267582 -0.06526,-0.156633 -0.06526,-0.332846 V 63.75388 h 0.528638 v 0.293688 q 0,0.130527 0.08484,0.21537 0.09137,0.08484 0.21537,0.08484 h 0.528638 q 0.124001,0 0.208844,-0.08484 0.08484,-0.08484 0.08484,-0.21537 v -0.737482 q 0,-0.156634 -0.09137,-0.267582 -0.09137,-0.110949 -0.215371,-0.195792 L 59.26897,62.285443 q -0.241476,-0.169687 -0.39811,-0.385057 -0.150107,-0.221898 -0.150107,-0.522112 v -0.580848 q 0,-0.176213 0.06526,-0.332846 0.07179,-0.156633 0.182739,-0.267582 0.117475,-0.117475 0.274108,-0.182739 0.156634,-0.07179 0.332846,-0.07179 h 0.482953 q 0.176212,0 0.326319,0.07179 0.156634,0.06526 0.274109,0.182739 0.117475,0.110949 0.182739,0.267582 0.06526,0.156633 0.06526,0.332846 v 0.267582 h -0.528638 z"
             style="font-size:6.52638912px;stroke-width:0.26458332"
             id="path4671"
             inkscape:connector-curvature="0" />
          <path
             d="m 61.474685,59.942469 h 1.350962 v 0.528637 h -0.391583 v 3.876676 h 0.391583 v 0.528637 h -1.350962 v -0.528637 h 0.385057 v -3.876676 h -0.385057 z"
             style="font-size:6.52638912px;stroke-width:0.26458332"
             id="path4673"
             inkscape:connector-curvature="0" />
          <path
             d="m 65.209105,64.876419 -1.305278,-3.406775 v 3.406775 h -0.574322 v -4.93395 h 0.574322 l 1.311804,3.406775 v -3.406775 h 0.567796 v 4.93395 z"
             style="font-size:6.52638912px;stroke-width:0.26458332"
             id="path4675"
             inkscape:connector-curvature="0" />
          <path
             d="m 68.270492,64.876419 h -1.970969 v -4.93395 h 1.977496 v 0.535164 h -1.403174 v 1.801283 h 1.220435 v 0.528638 h -1.220435 v 1.540228 h 1.396647 z"
             style="font-size:6.52638912px;stroke-width:0.26458332"
             id="path4677"
             inkscape:connector-curvature="0" />
          <path
             d="m 70.397483,60.77132 q 0,-0.124001 -0.08484,-0.208844 -0.08484,-0.09137 -0.215371,-0.09137 h -0.482953 q -0.130528,0 -0.215371,0.09137 -0.08484,0.08484 -0.08484,0.208844 v 0.626534 q 0,0.156633 0.09137,0.267582 0.09137,0.110948 0.215371,0.195791 l 0.815798,0.554743 q 0.23495,0.169686 0.385057,0.391584 0.156633,0.215371 0.156633,0.522111 v 0.698323 q 0,0.176213 -0.07179,0.332846 -0.06526,0.150107 -0.182739,0.267582 -0.110948,0.117475 -0.267582,0.182739 -0.150107,0.06526 -0.326319,0.06526 H 69.60779 q -0.176213,0 -0.332846,-0.06526 -0.156633,-0.06526 -0.274108,-0.182739 -0.110949,-0.117475 -0.182739,-0.267582 -0.06526,-0.156633 -0.06526,-0.332846 V 63.75388 h 0.528637 v 0.293688 q 0,0.130527 0.08484,0.21537 0.09137,0.08484 0.215371,0.08484 h 0.528638 q 0.124001,0 0.208844,-0.08484 0.08484,-0.08484 0.08484,-0.21537 v -0.737482 q 0,-0.156634 -0.09137,-0.267582 -0.09137,-0.110949 -0.215371,-0.195792 L 69.287997,62.285443 Q 69.04652,62.115756 68.889887,61.900386 68.73978,61.678488 68.73978,61.378274 v -0.580848 q 0,-0.176213 0.06526,-0.332846 0.07179,-0.156633 0.182739,-0.267582 0.117475,-0.117475 0.274108,-0.182739 0.156633,-0.07179 0.332846,-0.07179 h 0.482953 q 0.176212,0 0.326319,0.07179 0.156634,0.06526 0.274109,0.182739 0.117475,0.110949 0.182738,0.267582 0.06526,0.156633 0.06526,0.332846 v 0.267582 h -0.528637 z"
             style="font-size:6.52638912px;stroke-width:0.26458332"
             id="path4679"
             inkscape:connector-curvature="0" />
          <path
             d="m 73.12531,60.77132 q 0,-0.124001 -0.08484,-0.208844 -0.08484,-0.09137 -0.215371,-0.09137 h -0.482953 q -0.130528,0 -0.215371,0.09137 -0.08484,0.08484 -0.08484,0.208844 v 0.626534 q 0,0.156633 0.09137,0.267582 0.09137,0.110948 0.215371,0.195791 l 0.815798,0.554743 q 0.23495,0.169686 0.385057,0.391584 0.156634,0.215371 0.156634,0.522111 v 0.698323 q 0,0.176213 -0.07179,0.332846 -0.06526,0.150107 -0.182739,0.267582 -0.110948,0.117475 -0.267582,0.182739 -0.150107,0.06526 -0.326319,0.06526 h -0.522111 q -0.176213,0 -0.332846,-0.06526 -0.156633,-0.06526 -0.274108,-0.182739 -0.110949,-0.117475 -0.182739,-0.267582 -0.06526,-0.156633 -0.06526,-0.332846 V 63.75388 h 0.528637 v 0.293688 q 0,0.130527 0.08484,0.21537 0.09137,0.08484 0.215371,0.08484 h 0.528638 q 0.124001,0 0.208844,-0.08484 0.08484,-0.08484 0.08484,-0.21537 v -0.737482 q 0,-0.156634 -0.09137,-0.267582 -0.09137,-0.110949 -0.215371,-0.195792 l -0.809272,-0.561269 q -0.241477,-0.169687 -0.39811,-0.385057 -0.150107,-0.221898 -0.150107,-0.522112 v -0.580848 q 0,-0.176213 0.06526,-0.332846 0.07179,-0.156633 0.182739,-0.267582 0.117475,-0.117475 0.274108,-0.182739 0.156634,-0.07179 0.332846,-0.07179 h 0.482953 q 0.176212,0 0.326319,0.07179 0.156634,0.06526 0.274109,0.182739 0.117475,0.110949 0.182739,0.267582 0.06526,0.156633 0.06526,0.332846 v 0.267582 H 73.12531 Z"
             style="font-size:6.52638912px;stroke-width:0.26458332"
             id="path4681"
             inkscape:connector-curvature="0" />
          <path
             d="m 75.58545,59.942469 h 1.350963 v 0.528637 H 76.54483 v 3.876676 h 0.391583 v 0.528637 H 75.58545 v -0.528637 h 0.385057 V 60.471106 H 75.58545 Z"
             style="font-size:6.52638912px;stroke-width:0.26458332"
             id="path4683"
             inkscape:connector-curvature="0" />
          <path
             d="m 79.065345,60.77132 q 0,-0.124001 -0.08484,-0.208844 -0.08484,-0.09137 -0.215371,-0.09137 h -0.482953 q -0.130528,0 -0.215371,0.09137 -0.08484,0.08484 -0.08484,0.208844 v 0.626534 q 0,0.156633 0.09137,0.267582 0.09137,0.110948 0.21537,0.195791 l 0.815799,0.554743 q 0.23495,0.169686 0.385057,0.391584 0.156633,0.215371 0.156633,0.522111 v 0.698323 q 0,0.176213 -0.07179,0.332846 -0.06526,0.150107 -0.182739,0.267582 -0.110948,0.117475 -0.267582,0.182739 -0.150107,0.06526 -0.326319,0.06526 h -0.522111 q -0.176213,0 -0.332846,-0.06526 -0.156634,-0.06526 -0.274109,-0.182739 -0.110948,-0.117475 -0.182738,-0.267582 -0.06526,-0.156633 -0.06526,-0.332846 V 63.75388 h 0.528637 v 0.293688 q 0,0.130527 0.08484,0.21537 0.09137,0.08484 0.215371,0.08484 h 0.528638 q 0.124001,0 0.208844,-0.08484 0.08484,-0.08484 0.08484,-0.21537 v -0.737482 q 0,-0.156634 -0.09137,-0.267582 -0.09137,-0.110949 -0.215371,-0.195792 l -0.809272,-0.561269 q -0.241477,-0.169687 -0.39811,-0.385057 -0.150107,-0.221898 -0.150107,-0.522112 v -0.580848 q 0,-0.176213 0.06526,-0.332846 0.07179,-0.156633 0.182739,-0.267582 0.117475,-0.117475 0.274108,-0.182739 0.156633,-0.07179 0.332846,-0.07179 h 0.482953 q 0.176212,0 0.326319,0.07179 0.156633,0.06526 0.274108,0.182739 0.117475,0.110949 0.182739,0.267582 0.06526,0.156633 0.06526,0.332846 v 0.267582 H 79.06534 Z"
             style="font-size:6.52638912px;stroke-width:0.26458332"
             id="path4685"
             inkscape:connector-curvature="0" />
          <path
             d="m 83.803197,61.065008 h -0.56127 v -0.372004 q -0.01305,-0.09137 -0.08484,-0.156634 -0.06526,-0.06526 -0.156633,-0.06526 h -0.646112 q -0.104423,0 -0.176213,0.07179 -0.06526,0.07179 -0.06526,0.176212 v 3.38067 q 0,0.104422 0.06526,0.176212 0.07179,0.07179 0.176213,0.07179 h 0.646112 q 0.09137,0 0.156633,-0.06526 0.07179,-0.06526 0.08484,-0.156634 v -0.37201 h 0.56127 v 0.352425 q -0.0065,0.156633 -0.07179,0.300214 -0.06526,0.137054 -0.176213,0.241476 -0.104422,0.104423 -0.248003,0.169687 -0.137054,0.05874 -0.300214,0.05874 h -0.672218 q -0.163159,0 -0.313266,-0.05874 -0.143581,-0.06526 -0.254529,-0.169687 -0.104423,-0.110948 -0.169687,-0.254529 -0.05874,-0.150107 -0.05874,-0.313266 v -3.341512 q 0,-0.163159 0.05874,-0.30674 0.06526,-0.150107 0.169687,-0.254529 0.110948,-0.110949 0.254529,-0.169686 0.150107,-0.06526 0.313266,-0.06526 h 0.672218 q 0.16316,0 0.300214,0.06526 0.143581,0.05874 0.248003,0.16316 0.110949,0.104422 0.176213,0.248002 0.06526,0.137054 0.07179,0.293688 z"
             style="font-size:6.52638912px;stroke-width:0.26458332"
             id="path4687"
             inkscape:connector-curvature="0" />
          <path
             d="m 86.575483,64.0802 q 0,0.163159 -0.06526,0.313266 -0.05874,0.143581 -0.169686,0.254529 -0.104422,0.104423 -0.254529,0.169687 -0.143581,0.05874 -0.306741,0.05874 h -0.672218 q -0.169686,0 -0.313266,-0.05874 Q 84.650198,64.752418 84.53925,64.647995 84.428301,64.537047 84.363037,64.393466 84.3043,64.243359 84.3043,64.0802 v -3.334985 q 0,-0.16316 0.05874,-0.306741 0.06526,-0.150106 0.176213,-0.254529 0.110948,-0.110948 0.254529,-0.169686 0.14358,-0.06526 0.313266,-0.06526 h 0.672218 q 0.16316,0 0.306741,0.06526 0.150107,0.05874 0.254529,0.169686 0.110949,0.104423 0.169686,0.254529 0.06526,0.143581 0.06526,0.306741 z m -1.696861,0.01958 q 0,0.104422 0.07179,0.176212 0.07179,0.07179 0.176213,0.07179 h 0.626533 q 0.104422,0 0.176212,-0.07179 0.07179,-0.07179 0.07179,-0.176212 v -3.374143 q 0,-0.104423 -0.07179,-0.176213 -0.07179,-0.07179 -0.176212,-0.07179 h -0.626533 q -0.104423,0 -0.176213,0.07179 -0.07179,0.07179 -0.07179,0.176213 z"
             style="font-size:6.52638912px;stroke-width:0.26458332"
             id="path4689"
             inkscape:connector-curvature="0" />
          <path
             d="m 87.108609,64.876419 v -4.93395 h 1.474964 q 0.16316,0 0.306741,0.06526 0.150107,0.06526 0.254529,0.176212 0.110948,0.104423 0.169686,0.254529 0.06526,0.143581 0.06526,0.306741 V 64.0802 q 0,0.163159 -0.06526,0.313266 -0.05874,0.143581 -0.169686,0.254529 -0.104422,0.104423 -0.254529,0.169687 -0.143581,0.05874 -0.306741,0.05874 z m 0.574323,-0.528637 h 0.874536 q 0.104422,0 0.176212,-0.07179 0.07179,-0.07179 0.07179,-0.176212 v -3.374143 q 0,-0.104423 -0.07179,-0.176213 -0.07179,-0.07179 -0.176212,-0.07179 h -0.874536 z"
             style="font-size:6.52638912px;stroke-width:0.26458332"
             id="path4691"
             inkscape:connector-curvature="0" />
          <path
             d="m 91.877663,64.876419 h -1.97097 v -4.93395 h 1.977496 v 0.535164 h -1.403174 v 1.801283 h 1.220435 v 0.528638 h -1.220435 v 1.540228 h 1.396648 z"
             style="font-size:6.52638912px;stroke-width:0.26458332"
             id="path4693"
             inkscape:connector-curvature="0" />
          <path
             d="m 93.73697,59.942469 h 1.350963 v 0.528637 h -0.391584 v 3.876676 h 0.391584 v 0.528637 H 93.73697 v -0.528637 h 0.385057 V 60.471106 H 93.73697 Z"
             style="font-size:6.52638912px;stroke-width:0.26458332"
             id="path4695"
             inkscape:connector-curvature="0" />
          <path
             d="m 95.480841,59.942469 h 2.212446 v 0.535164 h -0.822325 v 4.398786 h -0.567796 v -4.398786 h -0.822325 z"
             style="font-size:6.52638912px;stroke-width:0.26458332"
             id="path4697"
             inkscape:connector-curvature="0" />
          <path
             d="m 99.626018,60.77132 q 0,-0.124001 -0.08484,-0.208844 -0.08484,-0.09137 -0.21537,-0.09137 h -0.482953 q -0.130528,0 -0.215371,0.09137 -0.08484,0.08484 -0.08484,0.208844 v 0.626534 q 0,0.156633 0.09137,0.267582 0.09137,0.110948 0.215371,0.195791 l 0.815799,0.554743 q 0.23495,0.169686 0.385056,0.391584 0.15664,0.215371 0.15664,0.522111 v 0.698323 q 0,0.176213 -0.0718,0.332846 -0.0653,0.150107 -0.182745,0.267582 -0.110949,0.117475 -0.267582,0.182739 -0.150107,0.06526 -0.326319,0.06526 h -0.522112 q -0.176212,0 -0.332845,-0.06526 -0.156634,-0.06526 -0.274109,-0.182739 -0.110948,-0.117475 -0.182739,-0.267582 -0.06526,-0.156633 -0.06526,-0.332846 V 63.75388 h 0.528638 v 0.293688 q 0,0.130527 0.08484,0.21537 0.09137,0.08484 0.215371,0.08484 h 0.528637 q 0.124002,0 0.208845,-0.08484 0.08484,-0.08484 0.08484,-0.21537 v -0.737482 q 0,-0.156634 -0.09137,-0.267582 -0.09137,-0.110949 -0.21537,-0.195792 l -0.809273,-0.561269 q -0.241476,-0.169687 -0.398109,-0.385057 -0.150107,-0.221898 -0.150107,-0.522112 v -0.580848 q 0,-0.176213 0.06526,-0.332846 0.07179,-0.156633 0.182738,-0.267582 0.117475,-0.117475 0.274109,-0.182739 0.156633,-0.07179 0.332846,-0.07179 h 0.482952 q 0.176213,0 0.32632,0.07179 0.156633,0.06526 0.274108,0.182739 0.117476,0.110949 0.182736,0.267582 0.0653,0.156633 0.0653,0.332846 v 0.267582 h -0.52864 z"
             style="font-size:6.52638912px;stroke-width:0.26458332"
             id="path4699"
             inkscape:connector-curvature="0" />
          <path
             d="m 102.69975,64.876419 h -1.97097 v -4.93395 h 1.97749 v 0.535164 h -1.40317 v 1.801283 h 1.22043 v 0.528638 h -1.22043 v 1.540228 h 1.39665 z"
             style="font-size:6.52638912px;stroke-width:0.26458332"
             id="path4701"
             inkscape:connector-curvature="0" />
          <path
             d="m 103.20166,64.876419 v -4.93395 h 0.57433 v 4.405313 h 1.17475 v 0.528637 z"
             style="font-size:6.52638912px;stroke-width:0.26458332"
             id="path4703"
             inkscape:connector-curvature="0" />
          <path
             d="m 105.96845,64.876419 h -0.57433 v -4.93395 h 1.9775 v 0.528637 h -1.40317 v 1.827389 h 1.22043 v 0.528638 h -1.22043 z"
             style="font-size:6.52638912px;stroke-width:0.26458332"
             id="path4705"
             inkscape:connector-curvature="0" />
        </g>
        <path
           style="fill:#007ebb;fill-opacity:1;stroke-width:0.19885287"
           d="m 43.372767,57.330666 h 63.935943 v 0.693883 H 43.372767 Z"
           id="rect3726"
           inkscape:connector-curvature="0" />
        <g
           transform="matrix(0.0044689,0,0,0.0044689,109.37569,34.843446)"
           id="g51">
          <g
             style="fill:#000000;stroke:none"
             id="layer1-2">
            <path
               inkscape:connector-curvature="0"
               d="m 2748,8290 c -20,-11 -40,-24 -43,-30 -3,-5 -23,-10 -43,-10 -62,0 -113,-37 -147,-105 -266,-537 -575,-957 -966,-1311 -308,-278 -621,-495 -966,-668 -118,-59 -135,-70 -153,-106 -11,-21 -20,-53 -20,-69 0,-20 -7,-34 -20,-41 -11,-6 -29,-28 -40,-50 -31,-61 -26,-130 19,-267 21,-65 44,-138 51,-163 7,-25 16,-56 20,-70 19,-59 72,-292 90,-400 36,-214 60,-481 60,-685 0,-140 -18,-406 -35,-514 -21,-130 -29,-177 -47,-266 -31,-159 -83,-358 -133,-510 -52,-162 -56,-210 -20,-274 15,-26 25,-59 25,-82 0,-22 9,-57 20,-78 17,-35 37,-48 192,-128 304,-157 499,-284 773,-502 160,-127 475,-443 609,-611 189,-236 410,-587 522,-827 37,-80 47,-94 83,-112 22,-12 56,-21 75,-21 19,0 38,-5 41,-10 4,-6 24,-19 45,-30 64,-32 130,-27 287,25 532,176 1097,246 1608,200 224,-19 264,-25 485,-70 194,-39 545,-136 601,-166 32,-17 137,-11 179,11 21,11 41,24 45,30 3,5 21,10 38,10 18,0 50,10 72,23 35,20 50,42 130,194 132,251 246,431 399,634 412,545 911,949 1571,1274 68,34 105,85 105,146 0,21 11,56 25,80 38,66 33,118 -24,294 -64,199 -118,422 -161,665 -13,75 -28,202 -40,340 -30,341 11,848 95,1180 8,30 25,100 39,155 14,55 46,163 71,239 52,160 57,223 25,287 -12,22 -27,42 -35,46 -9,3 -15,19 -15,39 0,19 -9,52 -20,74 -18,35 -34,46 -162,108 -205,100 -489,276 -658,408 -184,143 -224,179 -393,344 -360,352 -606,687 -827,1125 -76,152 -90,172 -125,192 -22,13 -56,23 -76,23 -21,0 -56,11 -80,25 -65,37 -119,33 -284,-20 -440,-143 -876,-215 -1300,-215 -198,0 -466,22 -615,50 -25,5 -74,14 -110,20 -173,31 -385,86 -569,146 -152,50 -214,55 -273,24 z m 272,-210 c 144,-47 363,-102 520,-130 36,-6 85,-15 110,-20 325,-62 850,-66 1270,-11 207,28 502,97 740,174 74,24 137,43 139,41 4,-4 -29,-89 -71,-182 -15,-34 -28,-64 -28,-66 0,-6 -178,-435 -200,-483 -11,-24 -20,-45 -20,-48 0,-5 -173,-425 -190,-460 -5,-11 -25,-58 -44,-105 -47,-119 -224,-549 -241,-585 -7,-16 -39,-93 -70,-170 -32,-77 -79,-192 -105,-255 -26,-63 -75,-180 -108,-260 -71,-174 -82,-199 -93,-225 -68,-160 -106,-252 -131,-315 -16,-41 -36,-90 -44,-107 -8,-18 -20,-48 -28,-65 -8,-18 -29,-69 -46,-112 -17,-44 -37,-91 -45,-105 l -13,-26 -22,50 c -20,45 -71,168 -212,510 -27,66 -65,156 -83,200 -31,75 -65,157 -130,315 -15,36 -33,79 -40,95 -7,17 -39,93 -70,170 -32,77 -65,158 -75,180 -10,22 -43,101 -73,175 -30,74 -74,180 -97,235 -23,55 -72,174 -110,265 -157,380 -191,462 -250,605 -125,301 -159,383 -229,555 -39,96 -75,185 -80,196 -11,24 -26,28 169,-36 z m -285,-140 c 50,-121 133,-322 952,-2300 356,-858 475,-1145 480,-1153 3,-4 -12,-1 -34,8 -130,55 -461,192 -528,220 -44,18 -210,87 -370,153 -347,143 -898,372 -1425,590 -212,88 -545,226 -740,307 -195,81 -383,159 -417,172 -35,14 -63,28 -63,32 0,3 53,33 117,65 666,331 1272,883 1694,1541 88,137 241,417 260,474 14,40 11,44 74,-109 z m 3304,-5 c 216,-431 470,-775 843,-1140 183,-179 223,-215 408,-359 172,-134 449,-306 680,-421 76,-39 91,-49 75,-55 -40,-16 -401,-164 -595,-245 -74,-31 -209,-87 -300,-124 -91,-38 -259,-108 -375,-156 -192,-79 -289,-120 -535,-222 -47,-19 -132,-54 -190,-78 -58,-24 -161,-67 -230,-95 -69,-29 -163,-68 -210,-87 -47,-19 -98,-41 -115,-48 -16,-8 -79,-34 -140,-59 -181,-73 -599,-245 -620,-256 -36,-17 -210,-88 -233,-95 l -22,-6 19,48 c 10,26 60,147 111,268 50,121 100,240 110,265 9,25 79,194 155,375 75,182 152,366 170,410 18,44 99,240 180,435 242,585 693,1674 721,1742 10,26 19,46 20,45 1,-1 34,-65 73,-142 z M 587,5779 c 43,-17 96,-39 118,-49 22,-10 78,-34 125,-53 47,-19 153,-63 235,-97 281,-116 440,-182 550,-227 61,-25 128,-53 150,-63 22,-10 85,-36 140,-58 55,-23 145,-59 200,-82 55,-23 147,-61 205,-85 58,-23 177,-73 265,-110 88,-37 210,-87 270,-112 61,-25 164,-68 230,-95 147,-61 369,-153 490,-203 50,-20 104,-43 120,-50 17,-8 82,-35 145,-61 114,-46 153,-62 220,-91 l 35,-15 -35,-15 c -41,-17 -219,-91 -335,-138 -44,-18 -145,-60 -225,-93 -80,-33 -239,-100 -355,-147 -189,-78 -265,-110 -360,-150 -16,-7 -136,-57 -265,-110 -209,-86 -304,-126 -655,-270 -49,-20 -109,-46 -132,-56 -23,-10 -44,-19 -47,-19 -2,0 -67,-26 -143,-58 -76,-33 -201,-85 -278,-116 -77,-32 -153,-63 -170,-71 -30,-13 -65,-28 -340,-140 -77,-31 -160,-66 -183,-77 -24,-11 -46,-17 -49,-14 -3,3 15,69 41,148 48,152 91,319 124,483 18,89 26,135 47,266 46,298 45,816 -4,1164 -24,169 -79,438 -111,535 -4,14 -13,45 -20,70 -7,25 -30,98 -51,163 -22,65 -39,120 -39,123 0,7 7,5 87,-27 z m 7553,28 c 0,-2 -20,-66 -45,-143 -25,-76 -57,-184 -71,-239 -14,-55 -31,-125 -39,-155 -115,-454 -138,-1143 -55,-1620 39,-223 95,-458 146,-617 19,-59 41,-127 48,-149 l 13,-41 -61,24 c -33,14 -77,32 -96,40 -64,28 -94,41 -185,78 -49,20 -103,42 -120,50 -16,7 -87,36 -157,64 -122,48 -280,114 -363,151 -22,10 -98,42 -170,70 -71,29 -148,60 -170,70 -58,25 -230,97 -470,195 -115,48 -223,92 -240,99 -16,7 -52,23 -80,34 -27,12 -106,44 -175,72 -69,28 -150,62 -180,75 -30,13 -91,38 -135,55 -44,18 -98,40 -120,50 -22,10 -103,44 -180,75 -77,32 -194,80 -260,107 -66,28 -158,66 -205,85 -47,19 -98,41 -115,48 -16,7 -45,18 -63,25 -18,7 -30,15 -27,18 5,6 62,30 410,173 121,50 238,99 260,109 22,10 101,43 175,73 74,30 200,82 280,115 142,59 250,103 380,156 36,15 74,31 85,36 20,10 381,160 545,227 205,84 477,196 505,209 17,7 140,59 275,115 236,98 269,112 335,138 17,7 93,38 170,71 136,56 155,64 155,57 z M 3959,3670 c -110,-267 -247,-597 -304,-735 -57,-137 -154,-371 -216,-520 -61,-148 -126,-306 -144,-350 -18,-44 -67,-163 -110,-265 -126,-304 -164,-396 -340,-823 -93,-224 -171,-407 -174,-407 -3,0 -14,19 -24,43 -36,89 -203,378 -312,542 -164,247 -302,413 -534,645 -350,350 -653,572 -1084,795 l -159,82 79,33 c 43,17 125,52 183,75 442,184 606,252 1065,442 286,118 637,264 780,323 143,59 359,149 480,199 121,49 398,164 615,255 217,90 396,161 398,157 1,-4 -88,-225 -199,-491 z m 911,340 c 162,-67 477,-198 700,-290 804,-333 1066,-442 1145,-475 166,-69 1279,-529 1343,-555 l 33,-13 -88,-42 C 7874,2574 7703,2478 7571,2393 6913,1966 6407,1411 6047,722 l -80,-154 -178,434 c -99,238 -199,480 -224,538 -24,58 -93,224 -153,370 -121,292 -262,632 -522,1260 -255,615 -410,991 -410,996 0,5 38,-10 390,-156 z m -510,-5 c 17,-44 38,-93 45,-110 8,-16 87,-205 176,-420 88,-214 188,-455 221,-535 94,-227 196,-475 245,-595 25,-60 53,-128 63,-150 18,-41 197,-472 277,-670 25,-60 53,-128 63,-150 10,-22 41,-96 69,-165 27,-69 75,-186 106,-260 117,-277 184,-444 181,-448 -2,-2 -44,10 -92,27 -467,158 -907,231 -1399,231 -460,0 -902,-71 -1335,-214 -74,-24 -137,-43 -139,-41 -4,4 46,133 85,220 12,28 37,86 54,130 17,44 40,98 50,120 10,22 45,108 79,190 33,83 87,215 121,295 34,80 84,201 111,270 28,69 59,143 69,166 11,22 28,65 40,94 12,29 30,73 41,96 10,24 19,45 19,47 0,3 48,119 106,259 93,222 141,337 301,728 19,47 41,99 48,115 8,17 30,71 50,120 48,118 104,255 116,280 5,11 45,108 89,215 105,254 100,243 105,239 2,-2 18,-40 35,-84 z"
               id="path10" />
          </g>
          <g
             style="fill:#007ebb;stroke:none"
             id="layer2">
            <path
               inkscape:connector-curvature="0"
               d="m 2826,8151 c -6,-8 47,-142 193,-493 106,-256 166,-401 371,-898 38,-91 87,-210 110,-265 23,-55 67,-161 97,-235 30,-74 63,-153 73,-175 10,-22 43,-103 75,-180 31,-77 63,-153 70,-170 24,-57 84,-201 135,-325 28,-69 66,-161 85,-205 18,-44 66,-159 105,-255 140,-339 169,-405 179,-408 12,-4 39,48 82,155 29,75 39,97 72,173 8,19 29,69 45,110 25,63 63,155 131,315 11,26 22,51 93,225 33,80 82,197 108,260 26,63 73,178 105,255 31,77 63,154 70,170 17,36 194,466 241,585 19,47 39,94 44,105 16,33 190,455 190,460 0,2 11,28 24,57 25,56 150,356 186,447 11,30 29,73 40,95 34,76 70,169 70,182 0,7 -4,15 -8,18 -5,3 -72,-15 -148,-40 -243,-78 -536,-147 -744,-175 -420,-55 -945,-51 -1270,11 -25,5 -74,14 -110,20 -173,31 -385,86 -569,146 -155,50 -138,46 -145,35 z"
               id="path13" />
            <path
               inkscape:connector-curvature="0"
               d="m 484,5817 c -3,-8 13,-67 34,-133 22,-65 45,-139 52,-164 7,-25 16,-56 20,-70 32,-97 87,-366 111,-535 49,-348 50,-866 4,-1164 -21,-131 -29,-177 -47,-266 -30,-154 -75,-328 -114,-450 -63,-196 -63,-194 -50,-204 7,-5 29,-1 61,14 28,13 113,49 190,80 272,111 310,127 340,140 17,8 93,39 170,71 77,31 202,83 278,116 76,32 141,58 143,58 3,0 24,9 47,19 23,10 83,36 132,56 351,144 446,184 655,270 129,53 249,103 265,110 95,40 171,72 360,150 116,47 275,114 355,147 80,33 181,75 225,93 342,139 377,155 383,172 4,15 -32,32 -268,127 -63,26 -128,53 -145,61 -16,7 -70,30 -120,50 -121,50 -343,142 -490,203 -66,27 -169,70 -230,95 -60,25 -182,75 -270,112 -88,37 -207,87 -265,110 -58,24 -150,62 -205,85 -55,23 -145,59 -200,82 -55,22 -118,48 -140,58 -22,10 -89,38 -150,63 -110,45 -269,111 -550,227 -82,34 -188,78 -235,97 -47,19 -103,43 -125,53 -65,30 -195,80 -206,80 -5,0 -12,-6 -15,-13 z"
               id="path15" />
            <path
               inkscape:connector-curvature="0"
               d="m 7985,5770 c -77,-33 -153,-64 -170,-71 -66,-26 -99,-40 -335,-138 -135,-56 -258,-108 -275,-115 -28,-13 -300,-125 -505,-209 -164,-67 -525,-217 -545,-227 -11,-5 -49,-21 -85,-36 -130,-53 -238,-97 -380,-156 -80,-33 -206,-85 -280,-115 -74,-30 -148,-61 -165,-69 -30,-13 -442,-184 -605,-251 -47,-19 -91,-41 -99,-48 -16,-16 -3,-23 229,-118 47,-19 139,-57 205,-85 66,-27 183,-75 260,-107 77,-31 158,-65 180,-75 22,-10 76,-32 120,-50 44,-17 105,-42 135,-55 30,-13 111,-47 180,-75 69,-28 148,-60 175,-72 28,-11 64,-27 80,-34 17,-7 125,-51 240,-99 240,-98 412,-170 470,-195 22,-10 99,-41 170,-70 72,-28 148,-60 170,-70 83,-37 241,-103 363,-151 70,-28 141,-57 157,-64 17,-8 71,-30 120,-50 85,-35 107,-44 188,-79 104,-45 162,-65 169,-58 4,4 -14,75 -41,157 -64,199 -118,422 -161,665 -83,477 -60,1166 55,1620 8,30 25,100 39,155 14,55 46,163 71,240 44,137 49,166 23,164 -7,0 -76,-27 -153,-59 z"
               id="path17" />
            <path
               inkscape:connector-curvature="0"
               d="m 4300,4088 c -11,-18 -20,-36 -20,-40 0,-6 -139,-345 -169,-413 -12,-25 -68,-162 -116,-280 -20,-49 -42,-103 -50,-120 -7,-16 -29,-68 -48,-115 -160,-391 -208,-506 -301,-728 -58,-140 -106,-256 -106,-259 0,-2 -9,-23 -19,-47 -11,-23 -29,-67 -41,-96 -12,-29 -29,-72 -40,-94 -10,-23 -41,-97 -69,-166 -27,-69 -77,-190 -111,-270 -34,-80 -88,-212 -121,-295 -34,-82 -69,-168 -79,-190 -10,-22 -32,-76 -50,-120 -17,-44 -38,-93 -46,-110 -46,-98 -101,-251 -94,-259 6,-5 74,12 167,42 444,144 868,212 1328,212 494,0 923,-71 1403,-232 66,-22 96,-28 103,-21 11,11 -19,89 -176,463 -31,74 -79,191 -106,260 -28,69 -59,143 -69,165 -10,22 -38,90 -63,150 -80,198 -259,629 -277,670 -10,22 -38,90 -63,150 -49,120 -151,368 -245,595 -33,80 -133,321 -221,535 -89,215 -168,404 -175,420 -8,17 -31,72 -51,123 -21,50 -41,95 -46,98 -5,3 -18,-10 -29,-28 z"
               id="path19" />
          </g>
          <g
             style="fill:#00bae9;stroke:none"
             id="layer3">
            <path
               inkscape:connector-curvature="0"
               d="m 5939,8064 c -11,-27 -33,-80 -49,-119 -15,-38 -90,-218 -165,-400 -75,-181 -190,-458 -255,-615 -65,-157 -184,-445 -265,-640 -81,-195 -162,-391 -180,-435 -18,-44 -95,-228 -170,-410 -75,-181 -155,-373 -176,-425 -21,-52 -81,-196 -133,-320 -51,-124 -91,-228 -87,-233 4,-4 34,4 67,17 81,32 185,75 209,86 21,11 436,182 620,256 61,25 124,51 140,59 17,7 68,29 115,48 47,19 141,58 210,87 69,28 172,71 230,95 58,24 143,59 190,78 246,102 343,143 535,222 116,48 284,118 375,156 91,37 226,93 300,124 143,60 330,137 520,214 63,26 115,53 115,60 0,7 -27,24 -60,39 -197,88 -549,303 -735,448 -184,143 -225,179 -398,349 -365,357 -619,702 -838,1140 -42,83 -80,154 -84,159 -6,6 -18,-11 -31,-40 z"
               id="path22" />
            <path
               inkscape:connector-curvature="0"
               d="m 2656,8079 c -9,-13 -16,-28 -16,-34 0,-20 -178,-344 -259,-470 -312,-487 -707,-898 -1176,-1225 -132,-92 -361,-228 -512,-304 -73,-36 -133,-70 -133,-76 0,-11 36,-31 106,-58 27,-11 209,-86 404,-167 195,-81 528,-219 740,-307 527,-218 1078,-447 1425,-590 160,-66 326,-135 370,-153 44,-18 190,-78 324,-134 136,-57 248,-98 252,-94 5,5 -27,95 -72,203 -44,107 -134,323 -199,480 -65,157 -211,510 -325,785 -245,591 -367,886 -665,1605 -121,294 -227,541 -234,548 -11,12 -16,10 -30,-9 z"
               id="path24" />
            <path
               inkscape:connector-curvature="0"
               d="m 4456,4191 c -3,-4 8,-39 23,-77 16,-38 154,-370 306,-739 153,-368 327,-789 387,-935 61,-146 159,-384 220,-530 60,-146 134,-323 164,-395 30,-71 132,-319 228,-550 95,-231 177,-420 182,-420 5,0 50,77 99,171 132,251 245,432 399,635 407,537 950,981 1560,1276 44,21 80,42 80,48 1,15 -38,33 -374,171 -321,132 -879,363 -1015,419 -44,19 -345,144 -670,278 -324,135 -759,314 -965,400 -595,247 -619,256 -624,248 z"
               id="path26" />
            <path
               inkscape:connector-curvature="0"
               d="m 3760,4024 c -217,-91 -494,-206 -615,-255 -121,-50 -337,-140 -480,-199 -143,-59 -429,-178 -635,-263 -206,-85 -523,-217 -705,-292 -437,-182 -498,-207 -645,-267 -69,-28 -131,-56 -138,-63 -11,-10 18,-29 160,-102 304,-157 499,-284 773,-502 160,-127 485,-453 619,-621 187,-234 414,-594 528,-836 21,-46 43,-84 48,-84 14,0 14,2 196,441 181,437 222,536 339,819 43,102 92,221 110,265 18,44 83,202 144,350 62,149 159,383 216,520 57,138 194,468 304,735 111,266 202,491 204,499 1,9 -5,16 -13,18 -8,1 -193,-72 -410,-163 z"
               id="path28" />
          </g>
        </g>
      </g>
    </g>
  </g>
</svg>
