<?xml version="1.0" encoding="UTF-8" standalone="no"?>
<!-- Created with Inkscape (http://www.inkscape.org/) -->

<svg
   xmlns:dc="http://purl.org/dc/elements/1.1/"
   xmlns:cc="http://creativecommons.org/ns#"
   xmlns:rdf="http://www.w3.org/1999/02/22-rdf-syntax-ns#"
   xmlns:svg="http://www.w3.org/2000/svg"
   xmlns="http://www.w3.org/2000/svg"
   xmlns:sodipodi="http://sodipodi.sourceforge.net/DTD/sodipodi-0.dtd"
   xmlns:inkscape="http://www.inkscape.org/namespaces/inkscape"
   width="210mm"
   height="297mm"
   viewBox="0 0 210 297"
   version="1.1"
   id="svg8"
   inkscape:export-filename="C:\Users\mpuchals\Desktop\logo1.png"
   inkscape:export-xdpi="96"
   inkscape:export-ydpi="96"
   inkscape:version="0.92.2 (5c3e80d, 2017-08-06)"
   sodipodi:docname="security_stream.svg">
  <defs
     id="defs2" />
  <sodipodi:namedview
     id="base"
     pagecolor="#ffffff"
     bordercolor="#666666"
     borderopacity="1.0"
     inkscape:pageopacity="0.0"
     inkscape:pageshadow="2"
     inkscape:zoom="1.979899"
     inkscape:cx="334.42996"
     inkscape:cy="832.97162"
     inkscape:document-units="mm"
     inkscape:current-layer="g3736"
     showgrid="false"
     showguides="true"
     inkscape:guide-bbox="true"
     inkscape:window-width="1605"
     inkscape:window-height="1023"
     inkscape:window-x="66"
     inkscape:window-y="-9"
     inkscape:window-maximized="1" />
  <metadata
     id="metadata5">
    <rdf:RDF>
      <cc:Work
         rdf:about="">
        <dc:format>image/svg+xml</dc:format>
        <dc:type
           rdf:resource="http://purl.org/dc/dcmitype/StillImage" />
        <dc:title />
      </cc:Work>
    </rdf:RDF>
  </metadata>
  <g
     inkscape:label="Layer 1"
     inkscape:groupmode="layer"
     id="layer1">
    <g
       id="g3736"
       transform="translate(-1.0558603e-6)">
      <text
         id="text3701"
         y="48.305702"
         x="42.763126"
         style="font-style:normal;font-variant:normal;font-weight:normal;font-stretch:normal;font-size:10.58333302px;line-height:1.25;font-family:'Green Mountain 3';-inkscape-font-specification:'Green Mountain 3, ';letter-spacing:0px;word-spacing:0px;fill:#000000;fill-opacity:1;stroke:none;stroke-width:0.26458332"
         xml:space="preserve"><tspan
           style="stroke-width:0.26458332"
           y="48.305702"
           x="42.763126"
           id="tspan3699"
           sodipodi:role="line">SECURITY</tspan></text>
      <text
         id="text3707"
         y="54.586533"
         x="80.998123"
         style="font-style:normal;font-variant:normal;font-weight:normal;font-stretch:normal;font-size:4.93888855px;line-height:1.25;font-family:'Green Mountain 3';-inkscape-font-specification:'Green Mountain 3, ';letter-spacing:0px;word-spacing:0px;fill:#000000;fill-opacity:1;stroke:none;stroke-width:0.26458332"
         xml:space="preserve"><tspan
           style="stroke-width:0.26458332"
           y="54.586533"
           x="80.998123"
           id="tspan3705"
           sodipodi:role="line">STREAM</tspan></text>
      <text
         id="text3713"
         y="64.876419"
         x="43.030396"
         style="font-style:normal;font-variant:normal;font-weight:normal;font-stretch:normal;font-size:4.93888855px;line-height:1.25;font-family:'Autobus Bold';-inkscape-font-specification:'Autobus Bold, ';letter-spacing:0px;word-spacing:0px;fill:#000000;fill-opacity:1;stroke:none;stroke-width:0.26458332"
         xml:space="preserve"><tspan
           style="font-size:6.52638912px;stroke-width:0.26458332"
           y="64.876419"
           x="43.030396"
           id="tspan3711"
           sodipodi:role="line">OUR BUSINESS IS CODE ITSELF</tspan></text>
      <rect
         style="fill:#007ebb;fill-opacity:1;stroke-width:0.19885287"
         y="57.330666"
         x="43.372768"
         height="0.6938836"
         width="63.935944"
         id="rect3726" />
      <g
         id="g51"
         transform="matrix(0.0044689,0,0,0.0044689,109.37569,34.843446)">
        <g
           id="layer1-2"
           style="fill:#000000;stroke:none">
          <path
             id="path10"
             d="m 2748,8290 c -20,-11 -40,-24 -43,-30 -3,-5 -23,-10 -43,-10 -62,0 -113,-37 -147,-105 -266,-537 -575,-957 -966,-1311 -308,-278 -621,-495 -966,-668 -118,-59 -135,-70 -153,-106 -11,-21 -20,-53 -20,-69 0,-20 -7,-34 -20,-41 -11,-6 -29,-28 -40,-50 -31,-61 -26,-130 19,-267 21,-65 44,-138 51,-163 7,-25 16,-56 20,-70 19,-59 72,-292 90,-400 36,-214 60,-481 60,-685 0,-140 -18,-406 -35,-514 -21,-130 -29,-177 -47,-266 -31,-159 -83,-358 -133,-510 -52,-162 -56,-210 -20,-274 15,-26 25,-59 25,-82 0,-22 9,-57 20,-78 17,-35 37,-48 192,-128 304,-157 499,-284 773,-502 160,-127 475,-443 609,-611 189,-236 410,-587 522,-827 37,-80 47,-94 83,-112 22,-12 56,-21 75,-21 19,0 38,-5 41,-10 4,-6 24,-19 45,-30 64,-32 130,-27 287,25 532,176 1097,246 1608,200 224,-19 264,-25 485,-70 194,-39 545,-136 601,-166 32,-17 137,-11 179,11 21,11 41,24 45,30 3,5 21,10 38,10 18,0 50,10 72,23 35,20 50,42 130,194 132,251 246,431 399,634 412,545 911,949 1571,1274 68,34 105,85 105,146 0,21 11,56 25,80 38,66 33,118 -24,294 -64,199 -118,422 -161,665 -13,75 -28,202 -40,340 -30,341 11,848 95,1180 8,30 25,100 39,155 14,55 46,163 71,239 52,160 57,223 25,287 -12,22 -27,42 -35,46 -9,3 -15,19 -15,39 0,19 -9,52 -20,74 -18,35 -34,46 -162,108 -205,100 -489,276 -658,408 -184,143 -224,179 -393,344 -360,352 -606,687 -827,1125 -76,152 -90,172 -125,192 -22,13 -56,23 -76,23 -21,0 -56,11 -80,25 -65,37 -119,33 -284,-20 -440,-143 -876,-215 -1300,-215 -198,0 -466,22 -615,50 -25,5 -74,14 -110,20 -173,31 -385,86 -569,146 -152,50 -214,55 -273,24 z m 272,-210 c 144,-47 363,-102 520,-130 36,-6 85,-15 110,-20 325,-62 850,-66 1270,-11 207,28 502,97 740,174 74,24 137,43 139,41 4,-4 -29,-89 -71,-182 -15,-34 -28,-64 -28,-66 0,-6 -178,-435 -200,-483 -11,-24 -20,-45 -20,-48 0,-5 -173,-425 -190,-460 -5,-11 -25,-58 -44,-105 -47,-119 -224,-549 -241,-585 -7,-16 -39,-93 -70,-170 -32,-77 -79,-192 -105,-255 -26,-63 -75,-180 -108,-260 -71,-174 -82,-199 -93,-225 -68,-160 -106,-252 -131,-315 -16,-41 -36,-90 -44,-107 -8,-18 -20,-48 -28,-65 -8,-18 -29,-69 -46,-112 -17,-44 -37,-91 -45,-105 l -13,-26 -22,50 c -20,45 -71,168 -212,510 -27,66 -65,156 -83,200 -31,75 -65,157 -130,315 -15,36 -33,79 -40,95 -7,17 -39,93 -70,170 -32,77 -65,158 -75,180 -10,22 -43,101 -73,175 -30,74 -74,180 -97,235 -23,55 -72,174 -110,265 -157,380 -191,462 -250,605 -125,301 -159,383 -229,555 -39,96 -75,185 -80,196 -11,24 -26,28 169,-36 z m -285,-140 c 50,-121 133,-322 952,-2300 356,-858 475,-1145 480,-1153 3,-4 -12,-1 -34,8 -130,55 -461,192 -528,220 -44,18 -210,87 -370,153 -347,143 -898,372 -1425,590 -212,88 -545,226 -740,307 -195,81 -383,159 -417,172 -35,14 -63,28 -63,32 0,3 53,33 117,65 666,331 1272,883 1694,1541 88,137 241,417 260,474 14,40 11,44 74,-109 z m 3304,-5 c 216,-431 470,-775 843,-1140 183,-179 223,-215 408,-359 172,-134 449,-306 680,-421 76,-39 91,-49 75,-55 -40,-16 -401,-164 -595,-245 -74,-31 -209,-87 -300,-124 -91,-38 -259,-108 -375,-156 -192,-79 -289,-120 -535,-222 -47,-19 -132,-54 -190,-78 -58,-24 -161,-67 -230,-95 -69,-29 -163,-68 -210,-87 -47,-19 -98,-41 -115,-48 -16,-8 -79,-34 -140,-59 -181,-73 -599,-245 -620,-256 -36,-17 -210,-88 -233,-95 l -22,-6 19,48 c 10,26 60,147 111,268 50,121 100,240 110,265 9,25 79,194 155,375 75,182 152,366 170,410 18,44 99,240 180,435 242,585 693,1674 721,1742 10,26 19,46 20,45 1,-1 34,-65 73,-142 z M 587,5779 c 43,-17 96,-39 118,-49 22,-10 78,-34 125,-53 47,-19 153,-63 235,-97 281,-116 440,-182 550,-227 61,-25 128,-53 150,-63 22,-10 85,-36 140,-58 55,-23 145,-59 200,-82 55,-23 147,-61 205,-85 58,-23 177,-73 265,-110 88,-37 210,-87 270,-112 61,-25 164,-68 230,-95 147,-61 369,-153 490,-203 50,-20 104,-43 120,-50 17,-8 82,-35 145,-61 114,-46 153,-62 220,-91 l 35,-15 -35,-15 c -41,-17 -219,-91 -335,-138 -44,-18 -145,-60 -225,-93 -80,-33 -239,-100 -355,-147 -189,-78 -265,-110 -360,-150 -16,-7 -136,-57 -265,-110 -209,-86 -304,-126 -655,-270 -49,-20 -109,-46 -132,-56 -23,-10 -44,-19 -47,-19 -2,0 -67,-26 -143,-58 -76,-33 -201,-85 -278,-116 -77,-32 -153,-63 -170,-71 -30,-13 -65,-28 -340,-140 -77,-31 -160,-66 -183,-77 -24,-11 -46,-17 -49,-14 -3,3 15,69 41,148 48,152 91,319 124,483 18,89 26,135 47,266 46,298 45,816 -4,1164 -24,169 -79,438 -111,535 -4,14 -13,45 -20,70 -7,25 -30,98 -51,163 -22,65 -39,120 -39,123 0,7 7,5 87,-27 z m 7553,28 c 0,-2 -20,-66 -45,-143 -25,-76 -57,-184 -71,-239 -14,-55 -31,-125 -39,-155 -115,-454 -138,-1143 -55,-1620 39,-223 95,-458 146,-617 19,-59 41,-127 48,-149 l 13,-41 -61,24 c -33,14 -77,32 -96,40 -64,28 -94,41 -185,78 -49,20 -103,42 -120,50 -16,7 -87,36 -157,64 -122,48 -280,114 -363,151 -22,10 -98,42 -170,70 -71,29 -148,60 -170,70 -58,25 -230,97 -470,195 -115,48 -223,92 -240,99 -16,7 -52,23 -80,34 -27,12 -106,44 -175,72 -69,28 -150,62 -180,75 -30,13 -91,38 -135,55 -44,18 -98,40 -120,50 -22,10 -103,44 -180,75 -77,32 -194,80 -260,107 -66,28 -158,66 -205,85 -47,19 -98,41 -115,48 -16,7 -45,18 -63,25 -18,7 -30,15 -27,18 5,6 62,30 410,173 121,50 238,99 260,109 22,10 101,43 175,73 74,30 200,82 280,115 142,59 250,103 380,156 36,15 74,31 85,36 20,10 381,160 545,227 205,84 477,196 505,209 17,7 140,59 275,115 236,98 269,112 335,138 17,7 93,38 170,71 136,56 155,64 155,57 z M 3959,3670 c -110,-267 -247,-597 -304,-735 -57,-137 -154,-371 -216,-520 -61,-148 -126,-306 -144,-350 -18,-44 -67,-163 -110,-265 -126,-304 -164,-396 -340,-823 -93,-224 -171,-407 -174,-407 -3,0 -14,19 -24,43 -36,89 -203,378 -312,542 -164,247 -302,413 -534,645 -350,350 -653,572 -1084,795 l -159,82 79,33 c 43,17 125,52 183,75 442,184 606,252 1065,442 286,118 637,264 780,323 143,59 359,149 480,199 121,49 398,164 615,255 217,90 396,161 398,157 1,-4 -88,-225 -199,-491 z m 911,340 c 162,-67 477,-198 700,-290 804,-333 1066,-442 1145,-475 166,-69 1279,-529 1343,-555 l 33,-13 -88,-42 C 7874,2574 7703,2478 7571,2393 6913,1966 6407,1411 6047,722 l -80,-154 -178,434 c -99,238 -199,480 -224,538 -24,58 -93,224 -153,370 -121,292 -262,632 -522,1260 -255,615 -410,991 -410,996 0,5 38,-10 390,-156 z m -510,-5 c 17,-44 38,-93 45,-110 8,-16 87,-205 176,-420 88,-214 188,-455 221,-535 94,-227 196,-475 245,-595 25,-60 53,-128 63,-150 18,-41 197,-472 277,-670 25,-60 53,-128 63,-150 10,-22 41,-96 69,-165 27,-69 75,-186 106,-260 117,-277 184,-444 181,-448 -2,-2 -44,10 -92,27 -467,158 -907,231 -1399,231 -460,0 -902,-71 -1335,-214 -74,-24 -137,-43 -139,-41 -4,4 46,133 85,220 12,28 37,86 54,130 17,44 40,98 50,120 10,22 45,108 79,190 33,83 87,215 121,295 34,80 84,201 111,270 28,69 59,143 69,166 11,22 28,65 40,94 12,29 30,73 41,96 10,24 19,45 19,47 0,3 48,119 106,259 93,222 141,337 301,728 19,47 41,99 48,115 8,17 30,71 50,120 48,118 104,255 116,280 5,11 45,108 89,215 105,254 100,243 105,239 2,-2 18,-40 35,-84 z"
             inkscape:connector-curvature="0" />
        </g>
        <g
           id="layer2"
           style="fill:#007ebb;stroke:none">
          <path
             id="path13"
             d="m 2826,8151 c -6,-8 47,-142 193,-493 106,-256 166,-401 371,-898 38,-91 87,-210 110,-265 23,-55 67,-161 97,-235 30,-74 63,-153 73,-175 10,-22 43,-103 75,-180 31,-77 63,-153 70,-170 24,-57 84,-201 135,-325 28,-69 66,-161 85,-205 18,-44 66,-159 105,-255 140,-339 169,-405 179,-408 12,-4 39,48 82,155 29,75 39,97 72,173 8,19 29,69 45,110 25,63 63,155 131,315 11,26 22,51 93,225 33,80 82,197 108,260 26,63 73,178 105,255 31,77 63,154 70,170 17,36 194,466 241,585 19,47 39,94 44,105 16,33 190,455 190,460 0,2 11,28 24,57 25,56 150,356 186,447 11,30 29,73 40,95 34,76 70,169 70,182 0,7 -4,15 -8,18 -5,3 -72,-15 -148,-40 -243,-78 -536,-147 -744,-175 -420,-55 -945,-51 -1270,11 -25,5 -74,14 -110,20 -173,31 -385,86 -569,146 -155,50 -138,46 -145,35 z"
             inkscape:connector-curvature="0" />
          <path
             id="path15"
             d="m 484,5817 c -3,-8 13,-67 34,-133 22,-65 45,-139 52,-164 7,-25 16,-56 20,-70 32,-97 87,-366 111,-535 49,-348 50,-866 4,-1164 -21,-131 -29,-177 -47,-266 -30,-154 -75,-328 -114,-450 -63,-196 -63,-194 -50,-204 7,-5 29,-1 61,14 28,13 113,49 190,80 272,111 310,127 340,140 17,8 93,39 170,71 77,31 202,83 278,116 76,32 141,58 143,58 3,0 24,9 47,19 23,10 83,36 132,56 351,144 446,184 655,270 129,53 249,103 265,110 95,40 171,72 360,150 116,47 275,114 355,147 80,33 181,75 225,93 342,139 377,155 383,172 4,15 -32,32 -268,127 -63,26 -128,53 -145,61 -16,7 -70,30 -120,50 -121,50 -343,142 -490,203 -66,27 -169,70 -230,95 -60,25 -182,75 -270,112 -88,37 -207,87 -265,110 -58,24 -150,62 -205,85 -55,23 -145,59 -200,82 -55,22 -118,48 -140,58 -22,10 -89,38 -150,63 -110,45 -269,111 -550,227 -82,34 -188,78 -235,97 -47,19 -103,43 -125,53 -65,30 -195,80 -206,80 -5,0 -12,-6 -15,-13 z"
             inkscape:connector-curvature="0" />
          <path
             id="path17"
             d="m 7985,5770 c -77,-33 -153,-64 -170,-71 -66,-26 -99,-40 -335,-138 -135,-56 -258,-108 -275,-115 -28,-13 -300,-125 -505,-209 -164,-67 -525,-217 -545,-227 -11,-5 -49,-21 -85,-36 -130,-53 -238,-97 -380,-156 -80,-33 -206,-85 -280,-115 -74,-30 -148,-61 -165,-69 -30,-13 -442,-184 -605,-251 -47,-19 -91,-41 -99,-48 -16,-16 -3,-23 229,-118 47,-19 139,-57 205,-85 66,-27 183,-75 260,-107 77,-31 158,-65 180,-75 22,-10 76,-32 120,-50 44,-17 105,-42 135,-55 30,-13 111,-47 180,-75 69,-28 148,-60 175,-72 28,-11 64,-27 80,-34 17,-7 125,-51 240,-99 240,-98 412,-170 470,-195 22,-10 99,-41 170,-70 72,-28 148,-60 170,-70 83,-37 241,-103 363,-151 70,-28 141,-57 157,-64 17,-8 71,-30 120,-50 85,-35 107,-44 188,-79 104,-45 162,-65 169,-58 4,4 -14,75 -41,157 -64,199 -118,422 -161,665 -83,477 -60,1166 55,1620 8,30 25,100 39,155 14,55 46,163 71,240 44,137 49,166 23,164 -7,0 -76,-27 -153,-59 z"
             inkscape:connector-curvature="0" />
          <path
             id="path19"
             d="m 4300,4088 c -11,-18 -20,-36 -20,-40 0,-6 -139,-345 -169,-413 -12,-25 -68,-162 -116,-280 -20,-49 -42,-103 -50,-120 -7,-16 -29,-68 -48,-115 -160,-391 -208,-506 -301,-728 -58,-140 -106,-256 -106,-259 0,-2 -9,-23 -19,-47 -11,-23 -29,-67 -41,-96 -12,-29 -29,-72 -40,-94 -10,-23 -41,-97 -69,-166 -27,-69 -77,-190 -111,-270 -34,-80 -88,-212 -121,-295 -34,-82 -69,-168 -79,-190 -10,-22 -32,-76 -50,-120 -17,-44 -38,-93 -46,-110 -46,-98 -101,-251 -94,-259 6,-5 74,12 167,42 444,144 868,212 1328,212 494,0 923,-71 1403,-232 66,-22 96,-28 103,-21 11,11 -19,89 -176,463 -31,74 -79,191 -106,260 -28,69 -59,143 -69,165 -10,22 -38,90 -63,150 -80,198 -259,629 -277,670 -10,22 -38,90 -63,150 -49,120 -151,368 -245,595 -33,80 -133,321 -221,535 -89,215 -168,404 -175,420 -8,17 -31,72 -51,123 -21,50 -41,95 -46,98 -5,3 -18,-10 -29,-28 z"
             inkscape:connector-curvature="0" />
        </g>
        <g
           id="layer3"
           style="fill:#00bae9;stroke:none">
          <path
             id="path22"
             d="m 5939,8064 c -11,-27 -33,-80 -49,-119 -15,-38 -90,-218 -165,-400 -75,-181 -190,-458 -255,-615 -65,-157 -184,-445 -265,-640 -81,-195 -162,-391 -180,-435 -18,-44 -95,-228 -170,-410 -75,-181 -155,-373 -176,-425 -21,-52 -81,-196 -133,-320 -51,-124 -91,-228 -87,-233 4,-4 34,4 67,17 81,32 185,75 209,86 21,11 436,182 620,256 61,25 124,51 140,59 17,7 68,29 115,48 47,19 141,58 210,87 69,28 172,71 230,95 58,24 143,59 190,78 246,102 343,143 535,222 116,48 284,118 375,156 91,37 226,93 300,124 143,60 330,137 520,214 63,26 115,53 115,60 0,7 -27,24 -60,39 -197,88 -549,303 -735,448 -184,143 -225,179 -398,349 -365,357 -619,702 -838,1140 -42,83 -80,154 -84,159 -6,6 -18,-11 -31,-40 z"
             inkscape:connector-curvature="0" />
          <path
             id="path24"
             d="m 2656,8079 c -9,-13 -16,-28 -16,-34 0,-20 -178,-344 -259,-470 -312,-487 -707,-898 -1176,-1225 -132,-92 -361,-228 -512,-304 -73,-36 -133,-70 -133,-76 0,-11 36,-31 106,-58 27,-11 209,-86 404,-167 195,-81 528,-219 740,-307 527,-218 1078,-447 1425,-590 160,-66 326,-135 370,-153 44,-18 190,-78 324,-134 136,-57 248,-98 252,-94 5,5 -27,95 -72,203 -44,107 -134,323 -199,480 -65,157 -211,510 -325,785 -245,591 -367,886 -665,1605 -121,294 -227,541 -234,548 -11,12 -16,10 -30,-9 z"
             inkscape:connector-curvature="0" />
          <path
             id="path26"
             d="m 4456,4191 c -3,-4 8,-39 23,-77 16,-38 154,-370 306,-739 153,-368 327,-789 387,-935 61,-146 159,-384 220,-530 60,-146 134,-323 164,-395 30,-71 132,-319 228,-550 95,-231 177,-420 182,-420 5,0 50,77 99,171 132,251 245,432 399,635 407,537 950,981 1560,1276 44,21 80,42 80,48 1,15 -38,33 -374,171 -321,132 -879,363 -1015,419 -44,19 -345,144 -670,278 -324,135 -759,314 -965,400 -595,247 -619,256 -624,248 z"
             inkscape:connector-curvature="0" />
          <path
             id="path28"
             d="m 3760,4024 c -217,-91 -494,-206 -615,-255 -121,-50 -337,-140 -480,-199 -143,-59 -429,-178 -635,-263 -206,-85 -523,-217 -705,-292 -437,-182 -498,-207 -645,-267 -69,-28 -131,-56 -138,-63 -11,-10 18,-29 160,-102 304,-157 499,-284 773,-502 160,-127 485,-453 619,-621 187,-234 414,-594 528,-836 21,-46 43,-84 48,-84 14,0 14,2 196,441 181,437 222,536 339,819 43,102 92,221 110,265 18,44 83,202 144,350 62,149 159,383 216,520 57,138 194,468 304,735 111,266 202,491 204,499 1,9 -5,16 -13,18 -8,1 -193,-72 -410,-163 z"
             inkscape:connector-curvature="0" />
        </g>
      </g>
    </g>
  </g>
</svg>
